<?xml version="1.0" standalone="no"?>
<!DOCTYPE svg PUBLIC "-//W3C//DTD SVG 20010904//EN"
 "http://www.w3.org/TR/2001/REC-SVG-20010904/DTD/svg10.dtd">
<svg version="1.0" xmlns="http://www.w3.org/2000/svg"
 width="379.000000pt" height="177.000000pt" viewBox="0 0 379.000000 177.000000"
 preserveAspectRatio="xMidYMid meet">

<g transform="translate(0.000000,177.000000) scale(0.100000,-0.100000)"
fill="#000000" stroke="none">
<path d="M2170 1576 c-65 -18 -125 -51 -149 -82 -55 -70 -67 -254 -22 -342 44
-87 145 -137 260 -130 74 4 115 24 159 80 26 31 42 108 23 108 -6 0 -11 -9
-11 -20 0 -71 -97 -150 -183 -150 -77 0 -117 71 -125 222 -8 161 25 272 88
298 24 10 38 9 77 -4 68 -23 100 -59 125 -139 11 -37 23 -65 27 -62 6 7 2 197
-5 204 -2 3 -10 -4 -17 -14 -13 -16 -16 -17 -48 -2 -51 25 -119 47 -138 46 -9
0 -36 -6 -61 -13z"/>
<path d="M1578 1560 c-98 -52 -128 -178 -57 -246 17 -16 83 -56 147 -89 93
-48 119 -66 126 -88 21 -61 -62 -113 -142 -89 -83 25 -139 85 -151 160 -4 20
-11 37 -18 39 -8 3 -12 -27 -15 -99 -2 -57 -3 -105 -1 -107 2 -2 12 4 24 15
20 18 22 18 97 -9 194 -69 325 7 313 180 -2 45 -61 94 -177 148 -130 61 -154
86 -134 136 22 51 78 62 152 30 57 -24 75 -43 88 -91 6 -22 15 -40 20 -40 11
0 12 2 14 88 l1 63 -35 -6 c-19 -3 -60 2 -90 10 -73 20 -117 18 -162 -5z"/>
<path d="M123 1564 c4 -4 17 -12 29 -18 22 -11 22 -12 19 -240 -1 -126 -5
-235 -8 -243 -3 -7 -14 -13 -24 -13 -10 0 -19 -4 -19 -9 0 -5 32 -9 70 -8 39
0 70 4 70 9 0 4 -10 8 -23 8 -44 0 -47 12 -47 224 0 111 4 207 9 214 5 9 15
-5 31 -45 13 -32 49 -120 81 -195 32 -76 63 -155 70 -178 8 -26 18 -40 29 -40
16 0 31 33 130 295 21 55 47 116 57 135 l18 35 3 -190 c3 -208 -1 -255 -23
-255 -8 0 -15 -4 -15 -8 0 -5 47 -9 105 -9 103 0 105 1 88 20 -16 17 -18 44
-18 249 l0 229 25 20 25 19 -94 -2 -94 -3 -29 -70 c-16 -38 -47 -116 -69 -172
-23 -57 -44 -103 -48 -103 -3 1 -35 75 -71 166 -36 91 -69 169 -75 174 -5 6
-54 10 -109 10 -54 0 -96 -3 -93 -6z"/>
<path d="M879 1550 c18 -14 20 -32 23 -201 l3 -186 30 -43 c36 -52 59 -67 127
-86 135 -36 220 -4 269 101 16 34 19 66 19 208 0 168 7 207 35 207 8 0 15 4
15 9 0 5 -32 9 -70 9 -42 1 -68 -3 -65 -9 4 -5 14 -9 24 -9 37 0 41 -21 37
-201 -5 -184 -11 -217 -53 -261 -62 -65 -149 -54 -194 25 -23 40 -24 53 -27
234 l-4 192 26 7 c58 14 19 23 -94 21 -109 -2 -118 -3 -101 -17z"/>
<path d="M2539 1551 c20 -13 21 -21 21 -253 0 -231 -1 -240 -20 -245 -11 -3
-20 -8 -20 -12 0 -8 407 -13 431 -6 12 4 16 24 18 91 2 68 0 85 -11 82 -7 -3
-15 -26 -19 -53 -4 -36 -12 -54 -35 -74 -27 -24 -39 -27 -112 -29 l-82 -2 0
245 0 245 25 10 c14 5 25 12 25 15 0 3 -54 5 -121 3 -107 -2 -119 -4 -100 -17z"/>
<path d="M3010 1564 c0 -2 11 -9 25 -14 l25 -10 0 -245 c0 -241 0 -245 -21
-245 -11 0 -18 -3 -16 -7 3 -5 101 -8 219 -8 l213 0 3 88 c3 94 -12 120 -24
41 -4 -30 -17 -58 -34 -78 -27 -30 -31 -31 -112 -31 l-83 0 -3 123 -3 122 39
0 c79 0 101 -9 104 -44 2 -17 8 -30 13 -29 6 2 10 40 10 88 0 84 -17 124 -23
54 l-3 -36 -61 -7 c-33 -3 -64 -3 -69 0 -5 3 -9 52 -9 108 l0 104 33 5 c17 3
43 4 57 3 14 -2 39 -4 57 -5 42 -1 69 -32 78 -87 4 -28 11 -44 18 -41 15 5 10
139 -6 149 -12 7 -427 10 -427 2z"/>
<path d="M1070 768 c-5 -13 -48 -115 -96 -228 -110 -262 -120 -280 -144 -280
-11 0 -20 -4 -20 -9 0 -5 34 -9 75 -9 44 -1 73 3 70 9 -4 5 -19 9 -36 9 -36 0
-36 7 -3 81 l26 58 94 -1 94 -1 30 -55 c37 -68 37 -82 5 -82 -14 0 -25 -4 -25
-9 0 -4 54 -8 120 -7 113 1 119 2 98 17 -12 10 -71 125 -138 270 -64 139 -122
255 -128 257 -7 2 -16 -7 -22 -20z m10 -254 c22 -47 40 -90 40 -96 0 -6 -32
-8 -82 -5 -71 4 -83 7 -80 22 5 25 70 165 77 165 3 0 24 -39 45 -86z"/>
<path d="M105 770 l-30 -7 28 -11 27 -12 0 -224 c0 -123 -3 -231 -6 -240 -3
-9 -15 -16 -25 -16 -10 0 -19 -4 -19 -10 0 -6 28 -10 65 -10 37 0 65 4 65 10
0 6 -13 10 -30 10 l-30 0 0 222 c0 137 4 218 9 213 5 -6 32 -64 59 -130 28
-66 66 -156 86 -200 20 -44 36 -88 36 -98 0 -22 26 -33 44 -18 7 6 16 28 20
49 3 20 18 60 32 87 14 28 40 93 59 145 41 115 64 170 70 170 3 0 5 -97 5
-216 0 -207 -1 -216 -20 -221 -46 -12 -2 -23 92 -23 97 0 100 1 85 18 -15 16
-17 49 -17 256 0 229 1 238 20 243 11 3 20 9 20 15 0 5 -41 7 -92 6 l-92 -3
-29 -75 c-16 -41 -44 -118 -62 -169 -17 -52 -36 -96 -42 -98 -5 -2 -29 45 -53
104 -23 59 -56 138 -73 176 l-30 67 -71 -1 c-39 -1 -84 -5 -101 -9z"/>
<path d="M1445 770 c-3 -5 6 -12 20 -16 l25 -6 0 -240 c0 -231 -1 -240 -20
-245 -50 -13 -11 -22 85 -20 99 2 124 8 90 21 -20 7 -22 173 -1 201 22 30 40
12 95 -89 56 -106 59 -116 34 -116 -9 0 -13 -3 -9 -7 7 -8 216 -12 216 -4 0 2
-13 20 -28 40 -16 20 -59 92 -97 161 -38 69 -75 132 -82 141 -12 14 -9 23 23
65 62 82 90 104 129 104 20 0 34 4 30 9 -3 6 -48 10 -101 10 -58 0 -92 -3 -89
-9 3 -6 22 -10 41 -10 40 0 45 -17 13 -46 -18 -16 -92 -113 -154 -201 -9 -13
-20 -23 -25 -23 -6 0 -10 54 -10 130 l0 130 25 6 c14 3 22 10 19 15 -7 12
-221 11 -229 -1z"/>
<path d="M2050 770 c0 -5 10 -10 23 -12 l22 -3 0 -245 0 -244 -25 -7 c-32 -9
-36 -9 213 -15 l197 -5 10 26 c12 32 13 165 2 165 -5 0 -15 -25 -21 -57 -17
-74 -43 -99 -112 -108 -30 -4 -68 -5 -84 -3 l-30 3 -3 123 -3 122 61 0 c59 0
60 0 74 -35 8 -19 19 -35 23 -35 4 0 8 38 9 85 1 88 -12 110 -28 48 -8 -29
-12 -32 -62 -38 -30 -4 -59 -4 -65 0 -7 4 -11 47 -11 111 l0 104 84 0 c69 0
88 -4 110 -21 14 -11 26 -30 26 -42 0 -33 11 -67 21 -67 8 0 14 148 7 151 -16
7 -438 6 -438 -1z"/>
<path d="M2566 771 c-4 -6 4 -13 19 -17 l25 -6 0 -240 c0 -231 -1 -240 -20
-245 -46 -12 -13 -19 95 -18 95 0 112 2 98 12 -9 7 -21 13 -25 13 -5 0 -7 51
-6 113 l3 112 34 -3 c46 -3 57 -14 71 -70 6 -26 24 -69 38 -96 32 -59 74 -80
172 -90 l65 -6 -27 24 c-29 26 -57 78 -77 141 -16 51 -44 85 -76 93 -36 10
-35 27 2 30 46 5 93 63 93 115 0 57 -23 91 -77 118 -43 20 -65 23 -224 27
-120 3 -179 1 -183 -7z m301 -41 c56 -34 63 -132 12 -186 -18 -20 -32 -24 -76
-24 l-53 0 0 115 0 115 43 0 c24 0 56 -8 74 -20z"/>
</g>
</svg>
